# xmcd
#
# Track frame offsets: 
#        150
#        23315
#        41355
#        63650
#        77342
#        105375
#        123987
#        141600
#        166562
#        189275
#
# Disc length: 2850 seconds
#
# Revision: 2
# Processed by: cddbd v1.4PL0 Copyright (c) Steve Scherf et al.
# Submitted via: ExactAudioCopy v0.95a3
#
DISCID=6e0b200a
DTITLE=Hot Tuna - Hot Tuna
DYEAR=1969
DGENRE=Blues
TTITLE0=Hesitation Blues
TTITLE1=How Long Blues
TTITLE2=Uncle Sam Blues
TTITLE3=Don't You Leave Me Here
TTITLE4=Death Don't Have No Mercy
TTITLE5=Know You Rider
TTITLE6=Oh Lord, Search My Heart
TTITLE7=Winin' Boy Blues
TTITLE8=New Song (For The Morning)
TTITLE9=Mann's Fate
EXTD=
EXTT0=
EXTT1=
EXTT2=
EXTT3=
EXTT4=
EXTT5=
EXTT6=
EXTT7=
EXTT8=
EXTT9=
PLAYORDER=
